<svg fill="none" height="64" viewBox="0 0 70 64" width="70" xmlns="http://www.w3.org/2000/svg"><path d="m13.4631 12.53h29.7378v25.3024h-16.3722v13.6376h29.8664v-27.2753c0-15.43753-8.7918-24.1947-24.2293-24.1947h-31.567362v34.8556c0 9.8302 10.868562 18.3105 21.287162 24.887-6.3342-4.4651-8.7571-11.9416-8.7571-19.9719v-27.2407z" fill="#0061fe"/><path d="m56.6324 51.47h-29.802v-25.3023h16.3721v-13.6377h-29.8021v27.2753c0 15.4376 8.7572 24.1947 24.1947 24.1947h31.5674v-34.8556c0-9.8302-10.8686-18.3104-21.2872-24.88695 6.3342 4.46512 8.7225 11.94155 8.7225 19.97185v27.2407z" fill="#1e1919"/></svg>