<svg width="65" height="64" viewBox="0 0 65 64" fill="none" xmlns="http://www.w3.org/2000/svg">
<path fill-rule="evenodd" clip-rule="evenodd" d="M40.3328 58H24.3328V54H40.3328V58Z" fill="#1E1919"/>
<path fill-rule="evenodd" clip-rule="evenodd" d="M24.3328 46.6636C18.9638 44.4863 16.3328 39.6341 16.3328 32C16.3328 21.2332 21.566 16 32.3328 16C43.0996 16 48.3328 21.2332 48.3328 32C48.3328 39.6341 45.7018 44.4863 40.3328 46.6636V50H24.3328V46.6636ZM23.1237 41.2091C24.5084 42.5939 26.7376 43.6449 30.3329 43.9257V38.8284L25.9187 34.4142L28.7472 31.5858L32.3329 35.1716L35.9187 31.5858L38.7472 34.4142L34.3329 38.8284V43.9257C37.9281 43.6449 40.1572 42.5938 41.5419 41.2091C43.1672 39.5838 44.3328 36.7954 44.3328 32C44.3328 27.2046 43.1672 24.4162 41.5419 22.7909C39.9166 21.1656 37.1282 20 32.3328 20C27.5374 20 24.749 21.1656 23.1237 22.7909C21.4984 24.4162 20.3328 27.2046 20.3328 32C20.3328 36.7954 21.4984 39.5838 23.1237 41.2091Z" fill="#1E1919"/>
<path fill-rule="evenodd" clip-rule="evenodd" d="M34.3328 6V12H30.3328V6L34.3328 6Z" fill="#1E1919"/>
<path fill-rule="evenodd" clip-rule="evenodd" d="M15.7468 15.5858L11.5042 11.3431L8.67578 14.1716L12.9184 18.4142L15.7468 15.5858Z" fill="#1E1919"/>
<path fill-rule="evenodd" clip-rule="evenodd" d="M48.9187 15.5858L53.1614 11.3431L55.9898 14.1716L51.7472 18.4142L48.9187 15.5858Z" fill="#1E1919"/>
</svg>
