<svg fill="none" height="60" viewBox="0 0 70 60" width="70" xmlns="http://www.w3.org/2000/svg"><path d="m22.8975 30c0 7.063 3.6752 11.3128 10.1875 12.0072v17.9928h-32.17875v-17.8971c7.7095 0 12.10295-4.3814 12.10295-12.1029 0-7.7095-4.39345-12.103-12.10295-12.103v-17.897h32.17875v18.0048c-6.5123.6704-10.1875 4.9441-10.1875 11.9952z" fill="#1e1919"/><path d="m56.9918 30c0 7.7215 4.3935 12.1029 12.103 12.1029v17.8971h-32.1788v-18.0048c6.5124-.6823 10.1876-4.9441 10.1876-12.0072 0-7.0511-3.6752-11.3128-10.1876-11.9952v-17.9928h32.1788v17.897c-7.7095 0-12.103 4.3935-12.103 12.103z" fill="#0061fe"/></svg>