<svg width="65" height="64" viewBox="0 0 65 64" fill="none" xmlns="http://www.w3.org/2000/svg">
<path fill-rule="evenodd" clip-rule="evenodd" d="M41.8763 22.25C39.1837 22.25 36.551 23.2269 34.7593 25.6156C33.1389 27.776 32.668 30.4975 32.668 33.0833C32.668 35.3122 33.0178 37.642 34.1522 39.6262C29.0665 40.0965 25.0846 44.3749 25.0846 49.5833V58H58.668V49.5833C58.668 44.3749 54.6861 40.0965 49.6004 39.6262C50.7348 37.642 51.0846 35.3122 51.0846 33.0833C51.0846 30.4975 50.6137 27.776 48.9933 25.6156C47.2016 23.2269 44.5689 22.25 41.8763 22.25ZM37.0013 33.0833C37.0013 28.7698 38.6417 26.5833 41.8763 26.5833C45.1109 26.5833 46.7513 28.7698 46.7513 33.0833C46.7513 37.3969 45.1109 39.5833 41.8763 39.5833C38.6417 39.5833 37.0013 37.3969 37.0013 33.0833ZM29.0846 49.5833C29.0846 46.2696 31.7709 43.5833 35.0846 43.5833H48.668C51.9817 43.5833 54.668 46.2696 54.668 49.5833V54H29.0846V49.5833Z" fill="#1E1919"/>
<path fill-rule="evenodd" clip-rule="evenodd" d="M16.3426 9.36559C18.1343 6.97688 20.767 6 23.4596 6C26.1523 6 28.7849 6.97688 30.5766 9.36559C32.1971 11.526 32.668 14.2475 32.668 16.8333C32.668 19.0619 32.3182 21.3913 31.1842 23.3753L31.1441 23.4449C31.1396 23.4526 31.1351 23.4603 31.1306 23.4679L28.7066 27.6667H17.5013C13.9115 27.6667 11.0013 30.5768 11.0013 34.1667V37.4167H23.0775L20.5756 41.75H6.66797V34.1667C6.66797 28.7664 10.6194 24.2889 15.7887 23.4679C14.6121 21.464 14.2513 19.0966 14.2513 16.8333C14.2513 14.2475 14.7222 11.526 16.3426 9.36559ZM28.3346 16.8333C28.3346 21.1469 26.6942 23.3333 23.4596 23.3333C20.2251 23.3333 18.5846 21.1469 18.5846 16.8333C18.5846 12.5198 20.2251 10.3333 23.4596 10.3333C26.6942 10.3333 28.3346 12.5198 28.3346 16.8333Z" fill="#1E1919"/>
</svg>
