<svg width="64" height="64" viewBox="0 0 64 64" fill="none" xmlns="http://www.w3.org/2000/svg">
<path fill-rule="evenodd" clip-rule="evenodd" d="M32.935 19.6052C39.1401 7.19504 54.0806 10.4996 53.7239 10.4996H56.1635L55.685 12.8919C55.2941 14.8467 54.0472 18.1254 51.8209 21.0786C49.5804 24.0506 46.1868 26.8948 41.472 27.4842C38.9218 27.8029 37.2432 28.2239 36.1763 28.6191C35.806 28.7563 35.5295 28.883 35.3261 28.99C35.4603 29.3138 35.5743 29.6551 35.6642 30.0146C38.186 40.1018 36.0369 49.6022 34.5808 53.2424L30.8669 51.7568C32.0486 48.8026 33.9676 40.506 31.9394 31.6357C31.6046 31.6834 31.0206 31.8373 30.1183 32.2885C29.4262 32.6345 28.8364 33.153 28.0678 33.9217C27.9532 34.0362 27.8337 34.1575 27.7089 34.2841C27.0437 34.959 26.2308 35.7838 25.2441 36.5313C22.7476 38.4226 19.2785 39.7544 13.2007 39.5005C13.1892 39.501 13.1732 39.502 13.1526 39.5036C13.1056 39.5073 13.0425 39.5138 12.9643 39.5246C12.8076 39.5462 12.6033 39.5832 12.3621 39.6422C11.8787 39.7606 11.2711 39.9621 10.6183 40.2885L8.07042 41.5624L7.73758 38.7333C7.35043 35.4425 8.19792 30.8191 11.3833 27.3887C14.6789 23.8397 20.1174 21.9387 28.1161 23.5385C29.0176 23.7188 30.2727 24.1368 31.5101 24.8544C31.9036 22.0942 32.6009 20.2734 32.935 19.6052ZM29.371 28.2396C28.5932 27.8093 27.8187 27.5582 27.3316 27.4608C20.3304 26.0605 16.4356 27.8263 14.3145 30.1105C12.8142 31.7262 12.0277 33.782 11.7583 35.6778C12.366 35.5499 12.8725 35.4996 13.2239 35.4996H13.2673L13.3108 35.5015C18.6935 35.7355 21.2089 34.5701 22.8287 33.3429C23.5655 32.7847 24.1493 32.1942 24.8118 31.524C24.9502 31.384 25.092 31.2406 25.2394 31.0932C26.0488 30.2838 27.0215 29.3647 28.3295 28.7108C28.6862 28.5324 29.0334 28.3752 29.371 28.2396ZM35.6038 24.5911C35.9414 22.7313 36.3986 21.6223 36.5127 21.3941C40.0994 14.2207 47.1913 13.9213 51.1055 14.2259C50.5797 15.5596 49.7631 17.1634 48.6268 18.6707C46.784 21.1153 44.261 23.1044 40.9758 23.5151C38.7189 23.7972 36.9622 24.169 35.6038 24.5911Z" fill="#1E1919"/>
<path d="M29.7239 53.9996C30.7239 52.4996 31.5572 49.9996 31.7239 48.9996L35.1839 51.4996C34.7339 52.9996 34.4405 53.6663 34.2739 53.9996H29.7239Z" fill="#1E1919"/>
</svg>
